<svg width="882" height="951" viewBox="0 0 882 951" fill="none" xmlns="http://www.w3.org/2000/svg">
<path d="M311.865 896.077C309.897 896.077 307.897 895.776 305.923 895.142C262.04 881.057 220.762 860.195 183.235 833.137C146.189 806.424 113.615 774.272 86.417 737.571C58.895 700.433 37.507 659.472 22.847 615.825C7.68605 570.69 0 523.445 0 475.402C0 364.052 41.6299 257.752 117.221 176.084C192.387 94.8749 294.3 45.1779 404.184 36.1489C414.888 35.2659 424.262 43.2279 425.141 53.9229C426.02 64.6179 418.062 74.0009 407.367 74.8799C307.199 83.1109 214.285 128.428 145.741 202.482C76.819 276.945 38.861 373.87 38.861 475.403C38.861 519.231 45.867 562.314 59.686 603.452C73.048 643.233 92.546 680.573 117.64 714.434C142.452 747.915 172.168 777.247 205.964 801.616C240.178 826.286 277.805 845.304 317.799 858.141C328.017 861.421 333.641 872.362 330.362 882.58C327.716 890.823 320.082 896.077 311.865 896.077Z" fill="white"/>
<path d="M497.074 912.419C487.487 912.419 479.144 905.324 477.84 895.56C476.418 884.923 483.889 875.148 494.525 873.727C590.141 860.947 678.128 813.849 742.279 741.108C773.973 705.17 798.739 664.388 815.889 619.893C833.64 573.838 842.64 525.225 842.64 475.402C842.64 389.833 816.116 308.155 765.937 239.197C741.771 205.988 712.786 176.749 679.785 152.293C646.413 127.562 609.643 108.256 570.496 94.911C560.339 91.448 554.912 80.4069 558.374 70.25C561.836 60.094 572.877 54.664 583.035 58.128C625.986 72.77 666.322 93.946 702.923 121.07C739.097 147.878 770.871 179.928 797.36 216.331C824.18 253.187 845.011 293.732 859.276 336.84C874.022 381.411 881.5 428.03 881.5 475.402C881.5 530.023 871.625 583.339 852.149 633.87C833.336 682.678 806.177 727.406 771.424 766.812C701.08 846.576 604.57 898.225 499.673 912.245C498.799 912.362 497.932 912.419 497.074 912.419Z" fill="white"/>
<path d="M359.504 933.433L430.979 575.099L186.54 605.332C174.763 606.789 166.331 594.237 172.132 583.884L495.167 7.45916C503.229 -6.92584 525.222 1.19816 521.997 17.3692L450.522 375.703L694.961 345.47C706.738 344.013 715.17 356.565 709.369 366.918L386.334 943.343C378.272 957.729 356.278 949.605 359.504 933.433Z" fill="white"/>
</svg>
